<?xml version="1.0" encoding="utf-8"?>
<!-- Generator: Adobe Illustrator 21.1.0, SVG Export Plug-In . SVG Version: 6.00 Build 0)  -->
<svg version="1.1" id="Calque_1" xmlns="http://www.w3.org/2000/svg" xmlns:xlink="http://www.w3.org/1999/xlink" x="0px" y="0px"
	 viewBox="0 0 121.3 101" style="enable-background:new 0 0 121.3 101;" xml:space="preserve">
<style type="text/css">
	.st0{fill:#FFFFFF;}
</style>
<path class="st0" d="M88.5,10.8c-5,0.2-10.7,5-1.4,8.9c8,3.4,23,5.2,3,21c0,0,31.1-17.8,5.4-23.1C81.6,14.7,85.5,11.2,88.5,10.8"/>
<path class="st0" d="M66.8,3.5c0,0,12.9-9.7,30.6,4.1c16.4,12.8,23.9,3.3,23.9,3.3s-11.5,17.8-27.4-0.8C80.8-5.1,66.8,3.5,66.8,3.5"
	/>
<path class="st0" d="M109.1,4.6c-0.3,2.2-2.3,3.8-4.6,3.5c-2.3-0.3-3.8-2.3-3.6-4.6c0.3-2.2,2.3-3.8,4.6-3.5
	C107.8,0.3,109.3,2.4,109.1,4.6"/>
<path class="st0" d="M30,34.3L30,34.3c8.6,2.8,16.1,3.5,24.7,1.7c-0.5,0.1-8.2,1.2-22.9-4.1v0c-8.6-2.8-17-3.3-24.8,3.3
	C7.5,34.9,15.3,29,30,34.3"/>
<path class="st0" d="M28.9,28.1L28.9,28.1c5.9,1.9,11.1,2.4,17,1.2c-0.4,0.1-5.7,0.8-15.8-2.8v0c-5.9-1.9-11.7-2.3-17.1,2.3
	C13.4,28.5,18.8,24.5,28.9,28.1"/>
<path class="st0" d="M88.8,23.7c0,0-1.5,3.1-4.3,6.8c-0.2,0.2-0.3,0.5-0.5,0.7c-4.3,5.5-11.5,12.1-21.1,12.5c0,0,0,0,0,0
	c4.6-0.1,12.8-1.5,21.6-8.4c0.3-0.3,0.7-0.5,1-0.8c2.7-2.2,5.4-4.9,8.1-8.2C93.7,25.1,88.8,23.7,88.8,23.7"/>
<path class="st0" d="M31.9,38.4L31.9,38.4C20.8,34.8,10,34.2,0,42.6c0.7-0.5,10.7-8,29.6-1.2h0C40,44.8,49.2,45.8,59.4,44
	c0,0,0,0,0,0C56.1,44.3,48.6,43.9,31.9,38.4"/>
<path class="st0" d="M85.5,34.6c-0.3,0.3-0.7,0.5-1,0.8c-0.3,6.7-5.8,12.1-12.6,12.1c-3.5,0-6.7-1.4-9-3.7c0,0,0,0,0,0
	c-2.3-2.3-3.7-5.4-3.7-8.9c0-7,5.7-12.6,12.7-12.6c5.7,0,10.6,3.8,12.1,9c0.2-0.2,0.4-0.5,0.5-0.7c-2.1-5.3-7.3-9-13.3-9
	c-7.9,0-14.4,6.4-14.4,14.3c0,3,0.9,5.8,2.5,8.1c0,0,0,0,0,0c2.6,3.8,6.9,6.2,11.9,6.2c7.9,0,14.4-6.4,14.4-14.3
	C85.6,35.5,85.6,35,85.5,34.6"/>
<polygon class="st0" points="20,88.8 20,91.5 17.5,91.5 17.5,100.7 14.1,100.7 14.1,91.5 11.6,91.5 11.6,88.8 "/>
<path class="st0" d="M24.8,94.1h0.6c0.4,0,1.6,0.1,1.6-1.3c0-1.3-1.1-1.2-1.4-1.2h-0.8V94.1z M26,88.8c1.4,0,1.9,0.1,2.6,0.4
	c0.1,0.1,0.5,0.2,0.7,0.5c0.4,0.4,1,1.3,1,2.7c0,0.5,0,1.6-0.9,2.6c-0.1,0.1-0.3,0.4-0.7,0.6c-0.1,0.1-0.3,0.2-0.6,0.3l3.5,4.8h-4
	l-2.9-4.1v4.1h-3.2v-12H26z"/>
<rect x="33.7" y="88.8" class="st0" width="3.5" height="12"/>
<path class="st0" d="M44.1,96.1h2.4L45.8,94c-0.2-0.7-0.4-1.4-0.6-2c-0.2,0.7-0.4,1.4-0.6,2.1L44.1,96.1z M47.1,88.8l4.4,12H48
	l-0.7-2.1h-4.1l-0.7,2.1h-3.5l4.4-12H47.1z"/>
<polygon class="st0" points="59.5,88.8 59.5,91.5 57,91.5 57,100.7 53.6,100.7 53.6,91.5 51.1,91.5 51.1,88.8 "/>
<polygon class="st0" points="64.5,88.8 64.5,93.2 68.4,93.2 68.4,88.8 71.8,88.8 71.8,100.7 68.4,100.7 68.4,96 64.5,96 64.5,100.7 
	61.1,100.7 61.1,88.8 "/>
<polygon class="st0" points="78.7,88.8 78.7,97.9 82.5,97.9 82.5,100.7 75.3,100.7 75.3,88.8 "/>
<path class="st0" d="M88.2,91.6c-0.8,0.4-1.8,1.2-1.8,3.2c0,0.2,0,0.8,0.2,1.4c0.4,1.3,1.5,2,2.9,2c0.8,0,1.7-0.3,2.3-0.9
	c0.6-0.7,0.9-1.7,0.9-2.6c0-2-1.1-2.9-1.9-3.2c-0.5-0.2-0.9-0.2-1.1-0.2C89.4,91.3,88.8,91.3,88.2,91.6 M93.8,89.7
	c0.8,0.6,2.4,2.2,2.4,4.9c0,0.7-0.1,2.7-1.6,4.3c-0.8,0.9-2.4,2.1-5.2,2.1c-2.6,0-4.1-1.1-4.8-1.9C84,98.6,83,97,83,94.8
	c0-0.7,0.1-2.9,1.8-4.5c1.8-1.8,4.2-1.8,5-1.8C91.2,88.5,92.6,88.7,93.8,89.7"/>
<path class="st0" d="M102,88.8l4.4,5.7c0.4,0.5,0.7,1,1,1.4c0-0.6,0-1.1,0-1.7l-0.1-5.4h3.4v12h-3.4l-4.2-5.6
	c-0.2-0.3-0.5-0.7-0.7-1c-0.2-0.2-0.3-0.4-0.4-0.6c0,0.6,0,1.2,0,1.8l0.1,5.4h-3.4v-12H102z"/>
<polygon class="st0" points="15.5,75.9 15.5,77.1 12.7,77.1 12.7,79 15.5,79 15.5,80.1 12.7,80.1 12.7,84 11.6,84 11.6,75.9 "/>
<path class="st0" d="M20.2,77.1v2.5h0.9c0.5,0,1-0.1,1.2-0.6c0.1-0.1,0.2-0.4,0.2-0.8c0-0.1,0-0.6-0.4-0.9c-0.3-0.2-0.6-0.2-0.9-0.2
	H20.2z M23.1,84l-2.5-3.4h-0.5V84H19v-8h2.4c0.6,0,1.1,0.1,1.5,0.4c0.6,0.4,0.8,1.1,0.8,1.8c0,0.3-0.1,1.4-1,2
	c-0.2,0.1-0.3,0.2-0.7,0.3c0.4,0.5,0.7,1.1,1.1,1.6c0.3,0.4,0.6,0.8,0.9,1.2c0.2,0.2,0.3,0.5,0.5,0.7H23.1z"/>
<path class="st0" d="M29.7,81h2.6L31,78.2L29.7,81z M34.8,84h-1.3L32.7,82h-3.5L28.3,84H27l4-8.5L34.8,84z"/>
<path class="st0" d="M44,76h1.2v8.3c-0.9-0.9-1.8-1.9-2.8-2.8c-0.5-0.5-1.1-1.1-1.6-1.7c-0.6-0.6-1.1-1.2-1.6-1.8
	c0,0.4,0.1,0.8,0.1,1.2c0,0.3,0,0.7,0,1V84h-1.2v-8.6c1.1,1.1,2.3,2.2,3.4,3.4c0.9,0.9,1.8,1.8,2.6,2.7c0-0.3-0.1-0.5-0.1-0.8
	c0-0.2,0-0.4,0-0.7V76z"/>
<path class="st0" d="M53.4,84.7l-1.1,1.5l-0.6-0.3l1-1.5L53.4,84.7z M55.1,77.7c-0.1-0.1-0.3-0.2-0.4-0.3c-0.3-0.2-0.8-0.5-1.6-0.5
	c-0.9,0-1.9,0.4-2.4,1.2c-0.5,0.7-0.6,1.6-0.6,1.9c0,0.2,0,0.8,0.3,1.3c0.5,1,1.6,1.7,2.7,1.7c0.8,0,1.3-0.3,2-0.8v1.4
	c-0.4,0.2-1,0.5-2,0.5c-0.5,0-1.7-0.1-2.8-1c-0.5-0.4-1.4-1.4-1.4-3.1c0-1,0.3-2,1-2.8c0.8-0.9,2-1.4,3.2-1.4c0.8,0,1.3,0.2,2,0.5
	L55.1,77.7z"/>
<path class="st0" d="M60.6,81h2.6l-1.2-2.8L60.6,81z M65.7,84h-1.3L63.6,82h-3.5L59.2,84h-1.3l4-8.5L65.7,84z"/>
<rect x="69" y="75.9" class="st0" width="1.2" height="8"/>
<path class="st0" d="M77.8,77.7c-0.1-0.1-0.1-0.2-0.2-0.3c-0.4-0.5-0.8-0.6-1.1-0.6c-0.2,0-0.3,0-0.5,0.1c-0.5,0.2-0.6,0.7-0.6,0.9
	c0,0.6,0.5,0.8,0.7,0.8l1.5,0.7c0.2,0.1,0.4,0.2,0.6,0.4c0.8,0.6,0.9,1.4,0.9,1.7c0,0.2,0,0.5-0.2,0.9c-0.4,1-1.3,1.7-2.4,1.7
	c-0.3,0-1.1-0.1-1.8-0.6c-0.5-0.5-0.8-1-1-1.7l1.1-0.2c0.2,0.4,0.3,0.6,0.4,0.8c0.3,0.4,0.8,0.8,1.3,0.8c0.3,0,0.5-0.1,0.6-0.1
	c0.5-0.2,0.8-0.7,0.8-1.3c0-0.6-0.4-1-0.9-1.3c-0.5-0.3-1.2-0.4-1.7-0.8c-0.9-0.5-1-1.3-1-1.7c0-0.2,0.1-0.8,0.5-1.3
	c0.2-0.3,0.8-0.8,1.8-0.8c0.3,0,1,0.1,1.6,0.6c0.3,0.2,0.5,0.5,0.7,0.8L77.8,77.7z"/>
<polygon class="st0" points="87.3,76 87.3,77.1 84.1,77.1 84.1,79 87.3,79 87.3,80.1 84.1,80.1 84.1,82.9 87.3,82.9 87.3,84 
	82.9,84 82.9,76 "/>
<path class="st0" d="M97.4,82.9c0.3,0,0.5,0,0.8,0c1.1,0,2-0.4,2.6-1.3c0.2-0.3,0.5-0.9,0.5-1.7c0-1.4-0.9-2.1-1.3-2.3
	c-0.8-0.5-1.8-0.5-2.7-0.4V82.9z M96.3,83.9v-8c1.6,0,2,0,3,0.1c0.7,0.1,0.9,0.2,1.3,0.4c1.3,0.7,1.9,2,1.9,3.4c0,0.5-0.1,1.7-1,2.8
	c-0.5,0.5-0.9,0.8-1.2,0.9c-0.5,0.2-1,0.3-2.1,0.4H96.3z"/>
<polygon class="st0" points="110.6,76 110.6,77.1 107.4,77.1 107.4,79 110.6,79 110.6,80.1 107.4,80.1 107.4,82.9 110.6,82.9 
	110.6,84 106.2,84 106.2,76 "/>
<polygon class="st0" points="15.1,62.6 15.1,63.3 12.3,63.3 12.3,66.3 15.1,66.3 15.1,67 12.3,67 12.3,71.4 11.6,71.4 11.6,62.6 "/>
<path class="st0" d="M24.2,61.1L22,61.9l-0.3-0.5l2.1-1.1L24.2,61.1z M24.7,62.6v0.6h-3.4v3.1h3.4V67h-3.4v3.7h3.5v0.7h-4.2v-8.8
	H24.7z"/>
<path class="st0" d="M30.7,70.7c0.3,0,0.7,0,1,0c0.5,0,2-0.1,3.1-1.3c0.9-0.9,0.9-1.9,0.9-2.4c0-1.8-1.1-2.8-1.6-3.2
	c-1-0.7-2.2-0.6-3.5-0.6V70.7z M30,62.6c1.5-0.1,1.8,0,2.7,0.1c0.2,0,0.5,0.1,0.7,0.1c0.4,0.1,1.1,0.3,1.8,1
	c0.4,0.4,1.2,1.5,1.2,3.1c0,0.5-0.1,0.9-0.1,1.1c-0.1,0.5-0.6,1.8-1.9,2.6c-1.4,0.9-2.9,0.8-4.5,0.8V62.6z"/>
<path class="st0" d="M45.5,61.1l-2.2,0.9l-0.3-0.5l2.1-1.1L45.5,61.1z M46,62.6v0.6h-3.4v3.1H46V67h-3.4v3.7h3.5v0.7h-4.2v-8.8H46z"
	/>
<path class="st0" d="M52.6,66.7c0.4,0,0.9,0,1.3,0c0.3,0,0.9-0.1,1.4-0.8c0.1-0.2,0.3-0.5,0.3-1c0-0.6-0.3-1.1-0.8-1.4
	c-0.5-0.3-1-0.3-2.2-0.2V66.7z M56.8,71.4h-0.9l-3.2-4.3v4.2H52v-8.8c0.5,0,1.1-0.1,2.3,0c0.3,0.1,0.6,0.1,0.8,0.2
	c0.8,0.4,1.3,1.2,1.3,2.1c0,0.3-0.1,1.1-0.7,1.8c-0.5,0.5-1.1,0.6-1.8,0.7L56.8,71.4z"/>
<path class="st0" d="M63.2,67.8h3.1l-1.5-3.9L63.2,67.8z M64.9,62.4l3.6,9h-0.8l-1.1-2.9h-3.6l-1.2,2.9H61l3.7-9H64.9z"/>
<polygon class="st0" points="76.9,63.3 74.5,63.3 74.5,71.4 73.8,71.4 73.8,63.3 71.4,63.3 71.4,62.6 76.9,62.6 "/>
<rect x="81.9" y="62.6" class="st0" width="0.7" height="8.8"/>
<path class="st0" d="M89.6,69.4c0.7,0.9,1.9,1.5,3,1.5c0.5,0,1.5-0.1,2.5-0.9c0.9-0.7,1.5-1.8,1.5-3c0-0.5-0.1-1.6-1-2.6
	c-0.7-0.8-1.8-1.3-2.9-1.3c-0.9,0-1.8,0.3-2.4,0.9c-0.9,0.7-1.4,1.8-1.5,2.9C88.7,67.7,89,68.7,89.6,69.4 M89.2,63.9
	c1.2-1.3,2.8-1.5,3.4-1.5c1.1,0,2.2,0.4,3.1,1.2c0.9,0.8,1.5,2.1,1.5,3.4c0,0.6-0.1,1.9-1.2,3.1c-1.2,1.4-2.8,1.5-3.4,1.5
	c-0.6,0-2-0.1-3.1-1.2c-0.9-0.9-1.5-2.2-1.4-3.5C88.1,66.3,88.2,65,89.2,63.9"/>
<path class="st0" d="M102.9,62.4l6.9,7.6v-7.4h0.7v9h-0.2c-0.9-1.1-1.9-2.2-2.8-3.2c-1.3-1.5-2.7-3-4-4.4v7.4h-0.7v-9H102.9z"/>
</svg>
